<mxfile host="Electron" modified="2023-12-21T02:32:20.070Z" agent="Mozilla/5.0 (Windows NT 10.0; Win64; x64) AppleWebKit/537.36 (KHTML, like Gecko) draw.io/22.1.2 Chrome/114.0.5735.289 Electron/25.9.4 Safari/537.36" etag="dAuIka0BKaTMUfe5rwBM" version="22.1.2" type="device">
  <diagram name="Page-1" id="bHUEA7w5ZbbaX_j9BSjd">
    <mxGraphModel dx="565" dy="342" grid="1" gridSize="10" guides="1" tooltips="1" connect="1" arrows="1" fold="1" page="1" pageScale="1" pageWidth="850" pageHeight="1100" math="0" shadow="0">
      <root>
        <mxCell id="0" />
        <mxCell id="1" parent="0" />
        <mxCell id="C2rEyAfm9G7SDzm22lbD-5" value="" style="rounded=1;whiteSpace=wrap;html=1;" vertex="1" parent="1">
          <mxGeometry x="197.5" y="220" width="205" height="220" as="geometry" />
        </mxCell>
        <mxCell id="JpSTIVJ-bI4Lpdjai9Tn-11" style="edgeStyle=orthogonalEdgeStyle;rounded=0;orthogonalLoop=1;jettySize=auto;html=1;exitX=1;exitY=0.5;exitDx=0;exitDy=0;entryX=0;entryY=0.5;entryDx=0;entryDy=0;" parent="1" source="JpSTIVJ-bI4Lpdjai9Tn-1" target="JpSTIVJ-bI4Lpdjai9Tn-3" edge="1">
          <mxGeometry relative="1" as="geometry" />
        </mxCell>
        <mxCell id="JpSTIVJ-bI4Lpdjai9Tn-12" style="edgeStyle=orthogonalEdgeStyle;rounded=0;orthogonalLoop=1;jettySize=auto;html=1;exitX=1;exitY=0.5;exitDx=0;exitDy=0;entryX=1;entryY=0.25;entryDx=0;entryDy=0;" parent="1" source="JpSTIVJ-bI4Lpdjai9Tn-1" target="JpSTIVJ-bI4Lpdjai9Tn-2" edge="1">
          <mxGeometry relative="1" as="geometry">
            <Array as="points">
              <mxPoint x="390" y="270" />
              <mxPoint x="390" y="375" />
            </Array>
          </mxGeometry>
        </mxCell>
        <mxCell id="JpSTIVJ-bI4Lpdjai9Tn-1" value="Regulator" style="rounded=0;whiteSpace=wrap;html=1;" parent="1" vertex="1">
          <mxGeometry x="240" y="240" width="120" height="60" as="geometry" />
        </mxCell>
        <mxCell id="JpSTIVJ-bI4Lpdjai9Tn-5" style="edgeStyle=orthogonalEdgeStyle;rounded=0;orthogonalLoop=1;jettySize=auto;html=1;exitX=0;exitY=0.5;exitDx=0;exitDy=0;entryX=0;entryY=0.75;entryDx=0;entryDy=0;" parent="1" source="JpSTIVJ-bI4Lpdjai9Tn-2" target="JpSTIVJ-bI4Lpdjai9Tn-1" edge="1">
          <mxGeometry relative="1" as="geometry" />
        </mxCell>
        <mxCell id="JpSTIVJ-bI4Lpdjai9Tn-18" value="x" style="edgeLabel;html=1;align=center;verticalAlign=middle;resizable=0;points=[];" parent="JpSTIVJ-bI4Lpdjai9Tn-5" vertex="1" connectable="0">
          <mxGeometry x="-0.2571" y="2" relative="1" as="geometry">
            <mxPoint x="2" y="44" as="offset" />
          </mxGeometry>
        </mxCell>
        <mxCell id="JpSTIVJ-bI4Lpdjai9Tn-2" value="State Estimator" style="rounded=0;whiteSpace=wrap;html=1;" parent="1" vertex="1">
          <mxGeometry x="240" y="360" width="120" height="60" as="geometry" />
        </mxCell>
        <mxCell id="JpSTIVJ-bI4Lpdjai9Tn-7" style="edgeStyle=orthogonalEdgeStyle;rounded=0;orthogonalLoop=1;jettySize=auto;html=1;exitX=0.5;exitY=1;exitDx=0;exitDy=0;entryX=0.5;entryY=0;entryDx=0;entryDy=0;" parent="1" source="JpSTIVJ-bI4Lpdjai9Tn-3" target="JpSTIVJ-bI4Lpdjai9Tn-4" edge="1">
          <mxGeometry relative="1" as="geometry" />
        </mxCell>
        <mxCell id="JpSTIVJ-bI4Lpdjai9Tn-3" value="System" style="rounded=0;whiteSpace=wrap;html=1;" parent="1" vertex="1">
          <mxGeometry x="520" y="240" width="120" height="60" as="geometry" />
        </mxCell>
        <mxCell id="JpSTIVJ-bI4Lpdjai9Tn-13" style="edgeStyle=orthogonalEdgeStyle;rounded=0;orthogonalLoop=1;jettySize=auto;html=1;exitX=0;exitY=0.75;exitDx=0;exitDy=0;entryX=1;entryY=0.75;entryDx=0;entryDy=0;" parent="1" source="JpSTIVJ-bI4Lpdjai9Tn-4" target="JpSTIVJ-bI4Lpdjai9Tn-2" edge="1">
          <mxGeometry relative="1" as="geometry" />
        </mxCell>
        <mxCell id="JpSTIVJ-bI4Lpdjai9Tn-14" value="y" style="edgeLabel;html=1;align=center;verticalAlign=middle;resizable=0;points=[];" parent="JpSTIVJ-bI4Lpdjai9Tn-13" vertex="1" connectable="0">
          <mxGeometry x="-0.2589" relative="1" as="geometry">
            <mxPoint x="39" y="-15" as="offset" />
          </mxGeometry>
        </mxCell>
        <mxCell id="JpSTIVJ-bI4Lpdjai9Tn-4" value="Sensor" style="rounded=0;whiteSpace=wrap;html=1;" parent="1" vertex="1">
          <mxGeometry x="520" y="360" width="120" height="60" as="geometry" />
        </mxCell>
        <mxCell id="JpSTIVJ-bI4Lpdjai9Tn-6" value="" style="endArrow=classic;html=1;rounded=0;entryX=0;entryY=0.25;entryDx=0;entryDy=0;" parent="1" target="JpSTIVJ-bI4Lpdjai9Tn-1" edge="1">
          <mxGeometry width="50" height="50" relative="1" as="geometry">
            <mxPoint x="120" y="255" as="sourcePoint" />
            <mxPoint x="750" y="510" as="targetPoint" />
            <Array as="points" />
          </mxGeometry>
        </mxCell>
        <mxCell id="JpSTIVJ-bI4Lpdjai9Tn-17" value="r" style="edgeLabel;html=1;align=center;verticalAlign=middle;resizable=0;points=[];" parent="JpSTIVJ-bI4Lpdjai9Tn-6" vertex="1" connectable="0">
          <mxGeometry x="-0.3048" y="1" relative="1" as="geometry">
            <mxPoint x="-12" y="-14" as="offset" />
          </mxGeometry>
        </mxCell>
        <mxCell id="JpSTIVJ-bI4Lpdjai9Tn-8" value="" style="endArrow=classic;html=1;rounded=0;entryX=1;entryY=0.5;entryDx=0;entryDy=0;" parent="1" target="JpSTIVJ-bI4Lpdjai9Tn-4" edge="1">
          <mxGeometry width="50" height="50" relative="1" as="geometry">
            <mxPoint x="710" y="390" as="sourcePoint" />
            <mxPoint x="750" y="510" as="targetPoint" />
          </mxGeometry>
        </mxCell>
        <mxCell id="JpSTIVJ-bI4Lpdjai9Tn-9" value="v" style="edgeLabel;html=1;align=center;verticalAlign=middle;resizable=0;points=[];" parent="JpSTIVJ-bI4Lpdjai9Tn-8" vertex="1" connectable="0">
          <mxGeometry x="-0.4204" relative="1" as="geometry">
            <mxPoint x="10" y="-10" as="offset" />
          </mxGeometry>
        </mxCell>
        <mxCell id="JpSTIVJ-bI4Lpdjai9Tn-15" value="u&lt;br&gt;" style="text;html=1;align=center;verticalAlign=middle;resizable=0;points=[];autosize=1;strokeColor=none;fillColor=none;" parent="1" vertex="1">
          <mxGeometry x="370" y="240" width="30" height="30" as="geometry" />
        </mxCell>
        <mxCell id="C2rEyAfm9G7SDzm22lbD-1" value="" style="endArrow=classic;html=1;rounded=0;entryX=0.25;entryY=0;entryDx=0;entryDy=0;" edge="1" parent="1" target="JpSTIVJ-bI4Lpdjai9Tn-3">
          <mxGeometry width="50" height="50" relative="1" as="geometry">
            <mxPoint x="550" y="200" as="sourcePoint" />
            <mxPoint x="450" y="500" as="targetPoint" />
          </mxGeometry>
        </mxCell>
        <mxCell id="C2rEyAfm9G7SDzm22lbD-3" value="w" style="edgeLabel;html=1;align=center;verticalAlign=middle;resizable=0;points=[];" vertex="1" connectable="0" parent="C2rEyAfm9G7SDzm22lbD-1">
          <mxGeometry x="-0.3" y="1" relative="1" as="geometry">
            <mxPoint x="9" y="-14" as="offset" />
          </mxGeometry>
        </mxCell>
        <mxCell id="C2rEyAfm9G7SDzm22lbD-2" value="" style="endArrow=classic;html=1;rounded=0;entryX=0.75;entryY=0;entryDx=0;entryDy=0;" edge="1" parent="1" target="JpSTIVJ-bI4Lpdjai9Tn-3">
          <mxGeometry width="50" height="50" relative="1" as="geometry">
            <mxPoint x="610" y="200" as="sourcePoint" />
            <mxPoint x="620" y="220" as="targetPoint" />
          </mxGeometry>
        </mxCell>
        <mxCell id="C2rEyAfm9G7SDzm22lbD-4" value="d" style="edgeLabel;html=1;align=center;verticalAlign=middle;resizable=0;points=[];" vertex="1" connectable="0" parent="C2rEyAfm9G7SDzm22lbD-2">
          <mxGeometry x="-0.45" y="-2" relative="1" as="geometry">
            <mxPoint x="12" y="-11" as="offset" />
          </mxGeometry>
        </mxCell>
        <mxCell id="C2rEyAfm9G7SDzm22lbD-6" value="" style="endArrow=classic;html=1;rounded=0;entryX=0.5;entryY=0;entryDx=0;entryDy=0;" edge="1" parent="1" target="JpSTIVJ-bI4Lpdjai9Tn-1">
          <mxGeometry width="50" height="50" relative="1" as="geometry">
            <mxPoint x="300" y="210" as="sourcePoint" />
            <mxPoint x="540" y="240" as="targetPoint" />
          </mxGeometry>
        </mxCell>
        <mxCell id="C2rEyAfm9G7SDzm22lbD-7" value="" style="endArrow=none;html=1;rounded=0;" edge="1" parent="1">
          <mxGeometry width="50" height="50" relative="1" as="geometry">
            <mxPoint x="300" y="210" as="sourcePoint" />
            <mxPoint x="550" y="210" as="targetPoint" />
          </mxGeometry>
        </mxCell>
      </root>
    </mxGraphModel>
  </diagram>
</mxfile>
